<?xml version="1.0" encoding="iso-8859-1"?>
<!-- Uploaded to: SVG Repo, www.svgrepo.com, Generator: SVG Repo Mixer Tools -->
<svg fill="#000000" height="800px" width="800px" version="1.1" id="Layer_1" xmlns="http://www.w3.org/2000/svg" xmlns:xlink="http://www.w3.org/1999/xlink" 
	 viewBox="0 0 512 512" xml:space="preserve">
<g>
	<g>
		<path d="M508,256H340c-2.212,0-4,1.788-4,4v64c0,2.212,1.788,4,4,4h168c2.212,0,4-1.788,4-4v-64C512,257.788,510.212,256,508,256z
			 M372.052,308c-8.836,0-16-7.168-16-16c0-8.836,7.164-16,16-16s16,7.164,16,16C388.052,300.832,380.888,308,372.052,308z"/>
	</g>
</g>
<g>
	<g>
		<path d="M444,352v76.004c0,11.028-8.724,19.996-19.752,19.996h-404c-0.028,0-0.08-0.008-0.1-0.008
			C12.892,447.984,8,446.176,0,443.04V452c0,19.852,16.204,36,36.052,36h420C475.9,488,492,471.852,492,452V352H444z"/>
	</g>
</g>
<g>
	<g>
		<path d="M460,93.708V68c0-24.26-19.688-44-43.948-44H44.064C19.8,24,0,43.74,0,68v50.14c0,0.612,0.22,1.224,0.22,1.86
			c0,11.028,9.004,20,20.028,20c0.016,0,0.024,0,0.04,0h403.96c11.028,0,19.752,8.976,19.752,20.004V232h48v-96
			C492,115.904,480,98.944,460,93.708z M436,92H44.064C33.036,92,24,83.028,24,72v-4c0-11.028,9.036-20,20.064-20h371.988
			C427.08,48,436,56.972,436,68V92z"/>
	</g>
</g>
<g>
	<g>
		<path d="M340.052,232H420v-68H20.248c-0.028,0-0.08-0.008-0.1-0.008C12.892,163.984,8,162.176,0,159.04v242.984
			c0,0.648,0.228,1.3,0.228,1.976c0,11.028,8.996,20,20.02,20c0.016,0,0.024,0,0.04,0H420v-72h-79.948
			C324.608,352,312,339.436,312,324v-64C312,244.564,324.608,232,340.052,232z"/>
	</g>
</g>
</svg>